<svg xmlns="http://www.w3.org/2000/svg" viewBox="0 0 157 200" width="157" height="200">
	<style>
		tspan { white-space:pre }
		.shp0 { fill: #c5852b } 
		.shp1 { fill: #1c1c1a } 
		.shp2 { fill: #e8151e } 
		.shp3 { fill: #153178 } 
		.shp4 { fill: #7b2524 } 
	</style>
	<g >
		<path class="shp0" d="M35.21 9.17C35.21 14.23 35.22 16.31 35.23 13.8C35.24 11.29 35.24 7.15 35.23 4.6C35.22 2.05 35.21 4.11 35.21 9.17Z" />
		<path class="shp1" d="M35.25 9.18C35.24 16.69 35.25 18.35 35.33 18.29C35.37 18.25 37.36 16.88 39.73 15.24L44.06 12.27L44.06 6.37C37.41 1.47 35.43 0.03 35.37 0.02C35.27 -0.01 35.26 0.79 35.25 9.18Z" />
		<path class="shp0" d="M19.79 18.83C19.79 26.17 19.8 29.15 19.81 25.47C19.82 21.78 19.82 15.78 19.81 12.13C19.8 8.48 19.79 11.5 19.79 18.83Z" />
		<path fill-rule="evenodd" class="shp2" d="M19.85 5.52L20.06 5.68C20.17 5.77 22.15 7.23 28.66 12.01L28.65 25.24C28.64 32.51 28.62 38.47 28.6 38.47C28.58 38.47 26.6 37.04 19.83 32.13L19.85 5.52ZM92.65 8.37C93.26 8.38 94.02 8.44 94.35 8.5C94.68 8.56 95.27 8.7 95.66 8.81C96.04 8.92 96.7 9.17 97.12 9.37C97.55 9.58 98.09 9.88 98.33 10.05C98.56 10.23 98.92 10.5 99.13 10.67C99.33 10.84 99.71 11.23 99.97 11.54C100.22 11.85 100.57 12.29 100.73 12.53C100.89 12.77 101.16 13.27 101.34 13.63C101.51 14 101.76 14.63 101.89 15.03C102.02 15.44 102.18 16.01 102.23 16.3C102.29 16.59 102.38 17.18 102.43 17.6C102.49 18.03 102.53 18.92 102.53 20.87L87.85 20.87L87.88 21.25C87.9 21.46 87.97 21.84 88.02 22.1C88.08 22.36 88.2 22.75 88.3 22.97C88.39 23.19 88.57 23.53 88.71 23.73C88.85 23.93 89.14 24.26 89.35 24.46C89.6 24.69 89.95 24.92 90.28 25.07C90.58 25.2 91.01 25.36 91.25 25.42C91.49 25.48 91.88 25.54 92.12 25.57C92.36 25.59 92.85 25.58 93.22 25.54C93.59 25.5 94.04 25.41 94.22 25.35C94.4 25.29 94.72 25.15 94.92 25.03C95.12 24.91 95.43 24.67 95.61 24.49C95.8 24.3 96.03 23.96 96.42 23.14L102.53 23.13L102.36 23.62C102.27 23.88 102.06 24.38 101.89 24.73C101.72 25.08 101.42 25.62 101.21 25.93C101 26.25 100.53 26.8 100.16 27.17C99.8 27.53 99.24 28 98.93 28.21C98.61 28.42 98.18 28.67 97.96 28.78C97.74 28.89 97.36 29.06 97.12 29.15C96.89 29.25 96.4 29.4 96.06 29.5C95.71 29.59 95.14 29.71 94.79 29.77C94.44 29.83 93.63 29.89 92.99 29.91C92.25 29.94 91.57 29.92 91.15 29.87C90.78 29.83 90.18 29.73 89.81 29.66C89.45 29.58 88.85 29.41 88.48 29.29C88.11 29.16 87.56 28.92 87.24 28.76C86.93 28.59 86.47 28.32 86.21 28.15C85.95 27.98 85.48 27.58 85.15 27.27C84.83 26.96 84.34 26.42 84.08 26.07C83.82 25.72 83.45 25.13 83.26 24.77C83.07 24.4 82.79 23.74 82.65 23.3C82.5 22.86 82.32 22.2 82.25 21.83C82.17 21.47 82.07 20.69 82.03 20.1C81.96 19.26 81.97 18.82 82.03 18C82.08 17.43 82.17 16.68 82.24 16.33C82.32 15.98 82.42 15.56 82.47 15.4C82.52 15.23 82.65 14.85 82.77 14.53C82.89 14.22 83.12 13.71 83.28 13.4C83.45 13.09 83.78 12.58 84.01 12.27C84.24 11.95 84.72 11.41 85.09 11.07C85.45 10.72 85.95 10.29 86.21 10.12C86.47 9.95 86.93 9.67 87.24 9.51C87.56 9.34 88.17 9.09 88.61 8.94C89.05 8.79 89.67 8.62 89.98 8.56C90.29 8.5 90.77 8.43 91.05 8.4C91.32 8.37 92.05 8.35 92.65 8.37ZM91.12 12.67C90.91 12.71 90.52 12.85 90.25 12.98C89.86 13.16 89.63 13.33 89.24 13.72C88.89 14.08 88.66 14.39 88.46 14.77C88.31 15.06 88.11 15.57 88.02 15.9C87.92 16.23 87.84 16.55 87.84 16.62C87.85 16.73 88.1 16.73 92.25 16.73L96.66 16.73C96.6 16.24 96.54 15.92 96.48 15.7C96.43 15.48 96.26 15.04 96.11 14.73C95.91 14.32 95.71 14.05 95.39 13.73C95.07 13.41 94.8 13.22 94.39 13.01C94.06 12.86 93.6 12.69 93.3 12.64C93.02 12.58 92.55 12.54 92.27 12.54C91.98 12.55 91.69 12.56 91.62 12.58C91.54 12.59 91.32 12.63 91.12 12.67ZM129.3 8.37C130.07 8.38 130.73 8.43 131.23 8.52C131.66 8.6 132.3 8.75 132.67 8.87C133.04 8.98 133.64 9.22 134 9.4C134.37 9.58 134.91 9.88 135.21 10.08C135.5 10.27 136.02 10.7 136.37 11.03C136.71 11.36 137.18 11.89 137.42 12.2C137.65 12.51 138 13.08 138.2 13.47C138.4 13.85 138.67 14.47 138.8 14.83C138.92 15.2 139.09 15.77 139.16 16.1C139.24 16.43 139.34 17 139.38 17.37C139.43 17.73 139.46 18.53 139.47 19.13C139.47 19.74 139.43 20.53 139.38 20.9C139.34 21.27 139.24 21.84 139.17 22.17C139.1 22.5 138.95 23.04 138.83 23.37C138.72 23.7 138.49 24.25 138.31 24.6C138.14 24.95 137.87 25.43 137.7 25.68C137.54 25.92 137.21 26.35 136.97 26.63C136.74 26.91 136.32 27.33 136.04 27.56C135.76 27.79 135.31 28.13 135.04 28.3C134.76 28.48 134.27 28.75 133.94 28.91C133.61 29.06 133.1 29.27 132.8 29.37C132.51 29.47 132 29.6 131.67 29.67C131.34 29.74 130.8 29.83 130.47 29.86C130.14 29.9 129.47 29.93 129 29.93C128.52 29.93 127.87 29.9 127.56 29.87C127.25 29.83 126.75 29.75 126.46 29.69C126.17 29.63 125.61 29.49 125.23 29.36C124.84 29.24 124.24 28.99 123.89 28.82C123.54 28.64 123.03 28.35 122.76 28.17C122.48 27.99 121.91 27.49 121.49 27.07C121.01 26.59 120.57 26.07 120.32 25.7C120.1 25.37 119.8 24.83 119.65 24.5C119.49 24.17 119.27 23.63 119.15 23.3C119.04 22.97 118.87 22.34 118.78 21.9C118.7 21.46 118.59 20.66 118.55 20.12C118.51 19.46 118.51 18.83 118.55 18.22C118.59 17.71 118.66 17.05 118.72 16.73C118.77 16.42 118.89 15.88 118.99 15.53C119.08 15.19 119.29 14.6 119.44 14.23C119.6 13.87 119.85 13.36 120 13.1C120.15 12.84 120.45 12.39 120.67 12.1C120.89 11.81 121.32 11.33 121.63 11.03C121.94 10.74 122.42 10.35 122.69 10.16C122.97 9.97 123.49 9.66 123.86 9.48C124.22 9.3 124.8 9.06 125.13 8.95C125.46 8.84 126.03 8.68 126.39 8.6C126.76 8.53 127.3 8.44 127.6 8.4C127.89 8.37 128.66 8.35 129.3 8.37ZM127.3 12.97C127.13 13.03 126.79 13.23 126.53 13.39C126.28 13.56 125.95 13.84 125.8 14.02C125.65 14.19 125.41 14.52 125.27 14.75C125.14 14.98 124.93 15.39 124.83 15.67C124.72 15.94 124.57 16.48 124.48 16.87C124.35 17.48 124.33 17.75 124.33 19.13C124.33 20.52 124.35 20.78 124.48 21.4C124.57 21.78 124.72 22.32 124.83 22.6C124.94 22.88 125.14 23.29 125.27 23.53C125.41 23.77 125.74 24.18 125.99 24.43C126.29 24.73 126.63 24.99 126.93 25.15C127.19 25.28 127.59 25.44 127.83 25.51C128.12 25.59 128.51 25.62 129.03 25.62C129.55 25.62 129.94 25.59 130.23 25.51C130.47 25.44 130.88 25.28 131.13 25.15C131.43 24.99 131.77 24.73 132.07 24.43C132.41 24.09 132.62 23.8 132.84 23.37C133.01 23.04 133.22 22.57 133.29 22.33C133.37 22.09 133.48 21.66 133.54 21.37C133.6 21.07 133.67 20.43 133.7 19.93C133.73 19.44 133.73 18.67 133.7 18.23C133.67 17.79 133.59 17.19 133.54 16.9C133.48 16.61 133.37 16.16 133.28 15.9C133.19 15.64 133.03 15.25 132.92 15.03C132.8 14.81 132.65 14.54 132.57 14.43C132.5 14.32 132.25 14.04 132.02 13.81C131.78 13.57 131.42 13.3 131.17 13.17C130.93 13.05 130.57 12.9 130.37 12.84C130.15 12.77 129.67 12.71 129.2 12.7C128.66 12.68 128.27 12.7 128 12.76C127.78 12.81 127.46 12.91 127.3 12.97ZM114.85 8.48C115.59 8.47 116.2 8.5 116.62 8.57C116.96 8.63 117.36 8.7 117.75 8.8L117.75 11.13C117.75 12.42 117.74 13.47 117.73 13.47C117.72 13.47 117.55 13.44 117.35 13.4C117.15 13.36 116.61 13.33 116.15 13.33C115.63 13.33 115.11 13.37 114.78 13.44C114.49 13.5 114.05 13.62 113.81 13.72C113.57 13.81 113.18 14.01 112.94 14.17C112.71 14.32 112.37 14.58 112.19 14.76C112.02 14.93 111.77 15.23 111.64 15.43C111.51 15.63 111.35 15.96 111.28 16.15C111.2 16.34 111.08 16.8 111.01 17.17C110.93 17.53 110.84 18.19 110.81 18.63C110.77 19.07 110.74 21.69 110.74 29.47L105.07 29.47L105.1 16.57L105.26 15.83C105.34 15.43 105.5 14.81 105.61 14.47C105.72 14.12 105.98 13.5 106.17 13.08C106.42 12.57 106.7 12.13 107.06 11.68C107.35 11.33 107.73 10.9 107.91 10.74C108.09 10.58 108.45 10.31 108.71 10.14C108.96 9.96 109.37 9.71 109.61 9.58C109.84 9.45 110.31 9.25 110.64 9.14C110.97 9.02 111.47 8.87 111.74 8.8C112.02 8.73 112.5 8.65 112.81 8.61C113.12 8.57 113.45 8.52 113.54 8.51C113.64 8.5 114.22 8.48 114.85 8.48ZM59.48 8.87L65.15 8.87L65.15 16.47L74.03 16.47L74.03 8.87L79.7 8.87L79.7 29.47L74.03 29.47L74.03 21.2L65.15 21.2L65.15 29.47L59.48 29.47L59.48 8.87Z" />
		<path class="shp1" d="M39.63 23.28C35.52 26.23 35.25 26.44 35.36 26.54C35.43 26.6 37.39 28.03 39.73 29.72C42.07 31.42 44 32.79 44.02 32.78C44.04 32.77 44.05 29.92 44.04 26.45L44.02 20.14L39.63 23.28Z" />
		<path fill-rule="evenodd" class="shp3" d="M77.63 46.25C78.17 46.27 78.68 46.34 79.07 46.43C79.4 46.51 79.83 46.67 80.04 46.77C80.24 46.87 80.59 47.14 80.81 47.36C81.03 47.58 81.28 47.9 81.37 48.07C81.45 48.23 81.58 48.59 81.65 48.87C81.73 49.2 81.8 49.83 81.85 50.77C81.89 51.54 81.9 52.42 81.88 52.73C81.86 53.04 81.78 53.47 81.72 53.67C81.65 53.87 81.52 54.17 81.44 54.33C81.35 54.5 81.11 54.8 80.91 55C80.69 55.22 80.33 55.47 80.03 55.62C79.76 55.75 79.31 55.92 79.03 55.99C78.76 56.06 78.29 56.15 78 56.19C77.71 56.23 76.68 56.3 75.73 56.34C74.78 56.38 73.98 56.42 73.97 56.42C73.96 56.43 74 57.51 74.05 58.83C74.1 60.15 74.14 61.24 74.14 61.24C74.13 61.25 73.46 61.28 71.16 61.37L71.16 61.12C71.16 60.98 71.02 57.69 70.85 53.82C70.69 49.94 70.56 46.71 70.57 46.63C70.59 46.5 70.7 46.5 73.69 46.36C75.4 46.28 77.17 46.23 77.63 46.25ZM73.65 48.88C73.64 48.89 73.68 49.83 73.73 50.97C73.78 52.1 73.82 53.24 73.83 53.48L73.83 53.93C75.25 53.87 76.08 53.83 76.6 53.8C77.18 53.77 77.67 53.7 77.9 53.62C78.12 53.55 78.36 53.41 78.5 53.27C78.63 53.14 78.77 52.91 78.82 52.77C78.86 52.62 78.9 52.14 78.9 51.7C78.9 51.26 78.87 50.63 78.83 50.3C78.79 49.9 78.72 49.61 78.62 49.43C78.5 49.23 78.36 49.12 78.07 48.97C77.68 48.77 77.63 48.77 76.7 48.76C76.17 48.75 75.26 48.77 74.7 48.81C74.13 48.84 73.66 48.87 73.65 48.88ZM85.63 46.4C85.69 46.4 87.39 46.64 89.41 46.93C91.43 47.23 93.53 47.53 94.07 47.62C94.99 47.76 95.06 47.78 95.03 47.9C95.01 47.97 94.93 48.52 94.69 50.2L94.52 50.17C94.43 50.15 92.96 49.94 91.25 49.7C89.54 49.46 88.14 49.27 88.13 49.28C88.12 49.29 88 50.08 87.85 51.03C87.71 51.99 87.6 52.77 87.6 52.78C87.61 52.79 88.96 53 90.62 53.24C92.27 53.48 93.63 53.68 93.64 53.69C93.65 53.7 93.58 54.24 93.49 54.9C93.39 55.56 93.31 56.11 93.3 56.11C93.29 56.12 91.93 55.93 90.28 55.7C88.63 55.46 87.27 55.28 87.26 55.28C87.25 55.29 87.12 56.14 86.97 57.17C86.83 58.19 86.72 59.04 86.73 59.05C86.74 59.06 88.2 59.28 89.98 59.54C91.76 59.8 93.23 60.03 93.25 60.04C93.27 60.06 93.2 60.61 93.1 61.25C93 61.9 92.91 62.44 92.9 62.45C92.89 62.45 90.78 62.16 88.21 61.79C85.64 61.43 83.51 61.12 83.47 61.1C83.43 61.09 83.52 60.25 83.72 58.89C83.89 57.69 84.36 54.41 84.77 51.6C85.18 48.79 85.51 46.48 85.51 46.45C85.51 46.42 85.56 46.4 85.63 46.4ZM65.51 47.14C65.54 47.14 66.15 49.48 66.86 52.35C67.58 55.22 68.19 57.79 68.23 58.07C68.26 58.34 68.27 58.76 68.25 59C68.23 59.24 68.17 59.57 68.12 59.73C68.08 59.9 67.95 60.21 67.84 60.43C67.73 60.65 67.46 61.02 67.24 61.26C67.03 61.49 66.67 61.81 66.45 61.97C66.23 62.12 65.87 62.34 65.65 62.45C65.43 62.56 65.04 62.73 64.78 62.82C64.53 62.92 63.95 63.09 63.51 63.2C63.07 63.31 62.35 63.44 61.91 63.48C61.29 63.54 60.98 63.54 60.51 63.47C60.18 63.43 59.77 63.34 59.61 63.29C59.44 63.23 59.11 63.09 58.88 62.98C58.6 62.84 58.29 62.61 58.01 62.33C57.68 62 57.49 61.73 57.26 61.26C56.97 60.68 56.85 60.25 55.64 55.4C54.92 52.52 54.32 50.12 54.3 50.07C54.28 49.99 54.56 49.9 55.69 49.62C56.47 49.42 57.11 49.27 57.12 49.28C57.13 49.29 57.72 51.61 58.44 54.43C59.32 57.91 59.8 59.68 59.93 59.93C60.03 60.12 60.23 60.39 60.38 60.53C60.53 60.66 60.8 60.81 60.98 60.87C61.18 60.93 61.52 60.96 61.85 60.95C62.16 60.94 62.65 60.87 63.03 60.77C63.39 60.68 63.86 60.51 64.08 60.4C64.3 60.29 64.61 60.07 64.77 59.91C64.96 59.71 65.09 59.51 65.18 59.23C65.27 58.93 65.29 58.74 65.26 58.43C65.23 58.21 64.64 55.76 63.93 52.99C63.22 50.21 62.67 47.91 62.7 47.89C62.73 47.86 63.36 47.68 64.1 47.49C64.84 47.3 65.48 47.14 65.51 47.14ZM99.64 48.8C99.65 48.8 100.99 49.28 102.61 49.87C104.24 50.46 105.84 51.05 106.17 51.18C106.5 51.31 106.98 51.54 107.24 51.69C107.49 51.84 107.85 52.07 108.04 52.2C108.22 52.34 108.5 52.61 108.65 52.81C108.8 53.01 109.01 53.35 109.11 53.57C109.24 53.86 109.3 54.11 109.33 54.5C109.34 54.8 109.32 55.24 109.27 55.5C109.23 55.76 109.03 56.42 108.84 56.97C108.65 57.52 108.41 58.18 108.3 58.43C108.2 58.69 108 59.08 107.87 59.3C107.73 59.52 107.46 59.85 107.26 60.03C107.06 60.22 106.77 60.43 106.6 60.52C106.44 60.6 106.09 60.71 105.83 60.76C105.58 60.82 105.27 60.86 105.15 60.87C105.03 60.87 104.93 60.88 104.93 60.9C104.93 60.92 105.34 62.32 105.84 64.02C106.33 65.71 106.73 67.12 106.72 67.14C106.71 67.16 105.97 66.91 103.43 65.99L102.57 63.08C102.1 61.48 101.71 60.16 101.71 60.15C101.7 60.14 101.11 59.93 100.39 59.67C99.68 59.41 99.08 59.2 99.06 59.2C99.04 59.2 98.65 60.22 98.2 61.48C97.74 62.74 97.37 63.77 97.36 63.78C97.36 63.79 96.75 63.58 96.01 63.31C95.27 63.05 94.65 62.82 94.62 62.8C94.6 62.78 95.28 60.82 96.15 58.43C97.01 56.05 98.14 52.91 98.66 51.45C99.19 49.99 99.63 48.8 99.64 48.8ZM101.51 52.32C101.48 52.42 101.11 53.44 100.7 54.6C100.28 55.76 99.93 56.74 99.92 56.79C99.9 56.84 99.99 56.92 100.13 56.97C100.26 57.02 101.09 57.31 101.98 57.63C102.87 57.94 103.77 58.22 103.98 58.24C104.26 58.28 104.45 58.26 104.68 58.18C104.9 58.1 105.07 57.98 105.23 57.78C105.38 57.6 105.59 57.16 105.83 56.5C106.04 55.95 106.23 55.35 106.26 55.17C106.29 54.98 106.3 54.73 106.27 54.6C106.25 54.47 106.17 54.28 106.09 54.17C106.01 54.06 105.89 53.92 105.83 53.86C105.76 53.8 105.52 53.65 105.3 53.54C105.08 53.43 104.15 53.07 103.24 52.74L101.57 52.15L101.51 52.32ZM49.88 51.94C49.97 51.93 50.07 52.16 50.35 53.05C50.69 54.13 50.7 54.17 50.57 54.21C50.49 54.24 50.15 54.34 49.8 54.43C49.45 54.53 48.88 54.72 48.53 54.85C48.18 54.98 47.62 55.2 47.29 55.33C46.96 55.47 46.47 55.71 46.19 55.87C45.92 56.02 45.59 56.24 45.47 56.36C45.35 56.47 45.2 56.66 45.14 56.77C45.07 56.91 45.05 57.07 45.08 57.33C45.11 57.59 45.23 57.91 45.47 58.4C45.71 58.87 45.9 59.15 46.05 59.26C46.26 59.41 46.34 59.43 46.79 59.42C47.07 59.41 47.52 59.36 47.79 59.31C48.07 59.25 48.81 59.1 49.43 58.96C50.33 58.77 50.76 58.71 51.5 58.68C52.35 58.66 52.47 58.67 52.83 58.8C53.14 58.91 53.33 59.05 53.64 59.36C53.97 59.69 54.13 59.96 54.58 60.83C54.87 61.42 55.18 62.13 55.27 62.4C55.4 62.8 55.44 63.04 55.44 63.6C55.44 64.26 55.42 64.33 55.21 64.77C55.05 65.08 54.84 65.37 54.54 65.67C54.3 65.91 53.82 66.29 53.47 66.52C53.12 66.76 52.47 67.13 52.03 67.35C51.59 67.57 50.93 67.86 50.56 68C50.2 68.14 49.46 68.36 48.93 68.49C48.4 68.62 47.72 68.76 47.43 68.79C47.13 68.83 46.89 68.85 46.89 68.85C46.88 68.84 46.78 68.38 46.66 67.83C46.55 67.28 46.44 66.78 46.42 66.72C46.4 66.64 46.43 66.6 46.51 66.6C46.57 66.6 46.97 66.52 47.39 66.43C47.82 66.33 48.52 66.14 48.96 66C49.4 65.85 49.99 65.64 50.26 65.52C50.54 65.4 50.99 65.18 51.27 65.03C51.54 64.89 51.91 64.63 52.08 64.45C52.31 64.23 52.41 64.06 52.44 63.88C52.47 63.75 52.45 63.48 52.41 63.3C52.36 63.12 52.21 62.72 52.06 62.42C51.92 62.11 51.7 61.76 51.58 61.63C51.46 61.5 51.26 61.36 51.13 61.32C51 61.28 50.72 61.27 50.5 61.29C50.28 61.31 49.42 61.48 48.6 61.66C47.77 61.85 46.79 62.03 46.43 62.07C46.06 62.11 45.61 62.12 45.42 62.1C45.24 62.08 44.94 62.01 44.76 61.95C44.57 61.89 44.28 61.73 44.11 61.59C43.93 61.45 43.66 61.15 43.5 60.92C43.34 60.69 43.04 60.17 42.84 59.77C42.64 59.36 42.41 58.85 42.34 58.63C42.26 58.41 42.16 58.04 42.12 57.8C42.08 57.56 42.06 57.23 42.08 57.07C42.11 56.9 42.18 56.62 42.23 56.43C42.29 56.25 42.44 55.95 42.56 55.77C42.67 55.58 42.9 55.3 43.06 55.13C43.22 54.97 43.57 54.67 43.82 54.48C44.08 54.28 44.8 53.87 45.42 53.57C46.05 53.26 46.93 52.87 47.39 52.7C47.85 52.53 48.57 52.29 49 52.17C49.42 52.04 49.82 51.94 49.88 51.94ZM119.57 57.62L120.21 58.06C120.57 58.3 121.12 58.69 122.02 59.33L120.31 61.78C119.37 63.13 117.78 65.42 116.77 66.87C115.76 68.31 114.96 69.52 114.99 69.54C115.02 69.57 116.2 70.39 117.62 71.37C119.03 72.34 120.18 73.18 120.18 73.22C120.17 73.27 119.88 73.72 119.52 74.23C119.16 74.75 118.84 75.16 118.79 75.16C118.75 75.16 117.68 74.43 116.41 73.56C115.15 72.68 113.43 71.48 111.08 69.83L111.48 69.27C111.7 68.95 113.61 66.21 115.72 63.16L119.57 57.62ZM32.65 61.2C32.69 61.2 33.02 61.57 33.4 62.02C33.78 62.47 35.98 64.98 38.28 67.6C42.25 72.12 42.47 72.37 42.34 72.47C42.27 72.52 41.61 73.1 40.87 73.75C40.12 74.4 39.49 74.93 39.45 74.93C39.41 74.93 36.79 73.95 33.63 72.74C30.46 71.53 27.84 70.53 27.8 70.52C27.77 70.51 27.73 70.53 27.73 70.57C27.72 70.6 29.31 72.45 31.27 74.66C33.22 76.88 34.85 78.74 34.89 78.8C34.96 78.88 34.81 79.04 32.81 80.81L32.61 80.58C32.5 80.46 30.29 77.94 27.71 74.99C24.53 71.36 23.03 69.61 23.07 69.56C23.1 69.52 23.76 68.93 24.53 68.26C25.58 67.35 25.97 67.06 26.07 67.08C26.14 67.1 28.81 68.11 32.01 69.33C35.2 70.54 37.82 71.53 37.83 71.52C37.83 71.51 36.19 69.62 34.17 67.32C32.16 65.02 30.5 63.11 30.5 63.08C30.49 63.05 30.96 62.61 31.54 62.11C32.12 61.61 32.62 61.2 32.65 61.2Z" />
		<path class="shp0" d="M129.23 66.38L128.33 67.3C129.75 65.91 130.17 65.49 130.17 65.48C130.17 65.47 130.16 65.47 130.15 65.47C130.14 65.47 129.73 65.88 129.23 66.38Z" />
		<path class="shp3" d="M124.93 70.75L119.69 76.03L126.53 82.8L128.26 81.05L123.52 76.33L126.26 73.6L130.6 77.93L132.37 76.17L128 71.88L130.57 69.3L135.27 74L137.03 72.23L130.18 65.47L124.93 70.75Z" />
		<path class="shp0" d="M134 69.27C134.7 69.96 135.29 70.53 135.31 70.53C135.32 70.53 134.78 69.96 134.09 69.27C133.4 68.57 132.82 68 132.79 68C132.76 68 133.31 68.57 134 69.27ZM129.5 73.37C130.18 74.05 130.75 74.6 130.77 74.6C130.78 74.6 130.25 74.05 129.58 73.37C128.91 72.69 128.34 72.13 128.31 72.13C128.29 72.13 128.82 72.69 129.5 73.37ZM121.12 74.55L119.92 75.77C121.81 73.91 122.36 73.36 122.36 73.35C122.36 73.34 122.35 73.33 122.34 73.33C122.33 73.33 121.78 73.88 121.12 74.55ZM124.69 75.18L123.52 76.37C125.36 74.56 125.89 74.03 125.89 74.02C125.89 74.01 125.89 74 125.88 74C125.87 74 125.33 74.53 124.69 75.18Z" />
		<path fill-rule="evenodd" class="shp3" d="M17.25 76.76C17.29 76.77 20.66 77.83 32.14 81.42L31.25 82.66C30.76 83.34 30.36 83.91 30.35 83.91C30.34 83.92 29.68 83.72 28.87 83.47C28.06 83.21 27.36 83 27.3 83C27.25 83.01 26.45 84.06 23.84 87.7L24.66 88.8C25.1 89.41 25.54 89.99 25.76 90.3L23.96 92.8L23.84 92.65C23.77 92.57 21.71 89.72 19.26 86.33C16.8 82.94 14.79 80.14 14.79 80.1C14.79 80.06 15.33 79.29 15.99 78.38C16.64 77.47 17.21 76.74 17.25 76.76ZM20.15 82.82C21.31 84.35 22.28 85.6 22.31 85.59C22.33 85.58 22.9 84.8 23.57 83.86L24.8 82.16C19.57 80.38 18.03 79.86 18 79.87C17.97 79.87 17.97 79.9 18 79.95C18.02 80 19 81.29 20.15 82.82Z" />
		<path class="shp2" d="M72.03 77.14C71.38 77.17 70.35 77.25 69.72 77.33C69.1 77.4 68.02 77.57 67.32 77.7C66.62 77.83 65.69 78.03 65.25 78.14C64.81 78.25 64.01 78.47 63.48 78.63C62.95 78.8 62.23 79.03 61.88 79.16C61.53 79.28 60.91 79.53 60.51 79.7C60.11 79.87 59.43 80.19 59.01 80.4L58.24 80.78C57.15 82.53 56.59 83.45 56.29 83.97C55.99 84.48 55.39 85.62 54.95 86.5C54.51 87.38 53.98 88.49 53.77 88.97C53.56 89.44 53.18 90.34 52.93 90.97C52.68 91.59 52.3 92.61 52.08 93.23C51.86 93.86 51.5 94.94 51.28 95.63C51.06 96.33 50.72 97.45 50.54 98.13C50.35 98.81 50.03 100.07 49.83 100.93C49.62 101.8 49.24 103.55 48.99 104.83C48.74 106.12 48.51 107.22 48.5 107.28C48.47 107.36 48.65 107.61 49.05 108.05C49.37 108.41 50.07 109.15 50.6 109.69C51.13 110.24 51.99 111.06 52.5 111.52C53.01 111.98 53.72 112.58 54.07 112.86C54.42 113.15 54.87 113.5 55.07 113.64C55.27 113.79 55.8 114.17 56.24 114.48C56.68 114.78 57.4 115.27 57.84 115.54C58.28 115.82 59.15 116.34 59.78 116.7C60.4 117.06 61.6 117.7 62.45 118.14C63.29 118.57 64.72 119.26 65.62 119.67C66.52 120.07 67.26 120.44 67.27 120.47C67.28 120.51 67.31 120.52 67.34 120.5C67.36 120.49 67.93 120.71 68.6 121L69.82 121.53C72.12 119.75 73.71 118.5 74.83 117.6C75.95 116.71 77.47 115.48 78.2 114.87C78.93 114.27 80.25 113.16 81.12 112.42C81.99 111.68 82.72 111.09 82.74 111.12C82.77 111.14 82.77 111.14 82.76 111.1C82.75 111.06 83.32 110.51 84.04 109.87C84.76 109.23 85.87 108.23 86.51 107.64C87.15 107.05 88.5 105.77 89.51 104.79C90.52 103.81 91.63 102.73 91.97 102.39L92.59 101.77C91.35 98.31 90.64 96.34 90.19 95.17C89.75 93.99 89.06 92.19 88.65 91.17C88.24 90.14 87.85 89.18 87.78 89.03C87.72 88.89 87.52 88.42 87.34 88C87.17 87.58 86.72 86.53 86.34 85.67C85.96 84.81 85.4 83.55 85.09 82.87C84.77 82.19 84.19 80.94 83.78 80.1L83.05 78.57C81.77 78.17 80.95 77.96 80.4 77.83C79.85 77.71 79.03 77.54 78.57 77.47C78.11 77.39 77.28 77.29 76.73 77.24C76.18 77.18 75.16 77.13 74.46 77.11C73.76 77.09 72.67 77.11 72.03 77.14Z" />
		<path class="shp0" d="M121.35 77.68C121.35 77.69 121.95 78.29 122.67 79L123.99 80.3C122 78.26 121.41 77.67 121.39 77.67C121.37 77.67 121.35 77.67 121.35 77.68Z" />
		<path fill-rule="evenodd" class="shp3" d="M142.07 78.95C142.14 78.96 142.61 79.61 144.44 82.37L144.26 82.6C144.15 82.73 142 85.49 139.48 88.73C136.95 91.98 134.87 94.65 134.85 94.68C134.82 94.71 134.42 94.16 133.95 93.46C133.49 92.77 133.12 92.16 133.13 92.12C133.15 92.07 133.58 91.5 134.1 90.85C134.62 90.2 135.04 89.64 135.04 89.6C135.04 89.56 134.32 88.45 131.83 84.73L131.38 84.87C131.14 84.94 130.45 85.14 129.85 85.32C129.14 85.52 128.74 85.61 128.7 85.57C128.67 85.53 128.28 84.96 127.84 84.3C127.39 83.64 127.05 83.08 127.08 83.06C127.11 83.03 130.46 82.1 134.54 80.98C138.61 79.86 142 78.95 142.07 78.95ZM134.32 84.02C134.32 84.03 134.84 84.84 135.49 85.82L136.67 87.6C140.09 83.45 141.13 82.17 141.19 82.09C141.26 82 141.29 81.94 141.26 81.94C141.23 81.95 139.67 82.41 137.78 82.97C135.88 83.54 134.33 84.01 134.32 84.02Z" />
		<path class="shp0" d="M127.21 80.02C128.2 81.01 128.23 81.04 128.11 81.16C128 81.29 128 81.29 128.15 81.16L128.3 81.03C126.75 79.46 126.27 79 126.25 79C126.22 79 126.65 79.46 127.21 80.02Z" />
		<path class="shp2" d="M100.23 80.31C99.97 80.41 99.26 80.67 98.66 80.9C98.05 81.13 97.12 81.51 96.59 81.75C96.06 81.98 95.33 82.31 94.98 82.47L94.34 82.77C94.89 84.42 95.15 85.23 95.27 85.63C95.38 86.04 95.72 87.33 96.02 88.5L96.57 90.63C97.59 91.18 98.46 91.67 99.16 92.06C99.86 92.46 100.86 93.06 101.4 93.39C101.93 93.72 103.02 94.43 103.83 94.96L105.3 95.92C106.28 95.45 106.94 95.15 107.4 94.95C107.86 94.75 108.6 94.44 109.04 94.27C109.48 94.09 110.2 93.82 110.64 93.67C111.08 93.51 111.51 93.36 111.59 93.33L111.74 93.27C111.5 91.95 111.33 91.15 111.21 90.63C111.1 90.12 110.88 89.28 110.73 88.77C110.58 88.25 110.28 87.28 110.06 86.6C109.75 85.63 109.63 85.33 109.48 85.22C109.39 85.13 108.86 84.76 108.3 84.38C107.75 84.01 106.69 83.33 105.93 82.88C105.18 82.43 103.7 81.63 102.65 81.1C101.59 80.57 100.72 80.13 100.71 80.14C100.7 80.14 100.48 80.22 100.23 80.31Z" />
		<path class="shp3" d="M9.7 88.72L9.02 90.03C19.27 95.2 22.26 96.71 22.28 96.72C22.31 96.72 22.63 96.14 23.01 95.42L23.69 94.1C13.44 88.93 10.45 87.43 10.42 87.42C10.4 87.41 10.07 87.99 9.7 88.72Z" />
		<path class="shp4" d="M87.92 89.29C87.92 89.31 88.25 90.17 88.65 91.18C89.06 92.2 89.75 93.99 90.19 95.17C90.64 96.34 91.35 98.31 91.79 99.53L92.59 101.77C91.63 102.73 90.49 103.84 89.44 104.86C88.4 105.87 86.86 107.31 86.04 108.07C85.21 108.82 84.13 109.79 83.63 110.23C83.13 110.67 82.74 111.05 82.76 111.08C82.79 111.1 83.74 111.58 84.89 112.13L86.98 113.13C89.28 111.25 90.55 110.2 91.28 109.57C92.02 108.95 93.14 107.98 93.79 107.41C94.43 106.84 95.34 106.01 95.82 105.57C96.3 105.13 96.85 104.62 97.05 104.44L97.42 104.1C96.97 102.81 96.53 101.58 96.14 100.53C95.76 99.49 95.22 98.09 94.95 97.43C94.69 96.77 94.18 95.6 93.83 94.83C93.48 94.06 92.85 92.73 92.44 91.87L91.67 90.3C88.99 89.55 88.15 89.31 88.07 89.29C88 89.27 87.93 89.27 87.92 89.29Z" />
		<path class="shp2" d="M45.02 90.88C44.48 91.44 43.67 92.31 43.23 92.81C42.78 93.3 42.19 93.99 41.91 94.34C41.46 94.89 41.35 95.07 41.05 95.83C40.86 96.31 40.56 97.12 40.37 97.63C40.19 98.15 39.75 99.41 39.41 100.43C39.06 101.46 38.78 102.34 38.78 102.38C38.78 102.43 39.02 102.66 39.3 102.9C39.58 103.14 40.06 103.5 40.35 103.69L40.89 104.05C42.74 101.56 43.74 100.24 44.3 99.52L45.32 98.2C46.17 95.75 46.72 94.22 47.1 93.23C47.47 92.24 47.8 91.39 47.82 91.33C47.85 91.26 47.76 91.17 47.54 91.03C47.37 90.92 46.99 90.64 46.69 90.41C46.4 90.17 46.13 89.96 46.08 89.92C46.04 89.88 45.67 90.21 45.02 90.88Z" />
		<path fill-rule="evenodd" class="shp3" d="M146.65 91C146.97 91 147.4 91.05 147.62 91.1C147.84 91.16 148.17 91.29 148.35 91.39C148.54 91.49 148.92 91.79 149.21 92.07C149.5 92.34 149.9 92.81 150.09 93.1C150.29 93.39 150.56 93.86 150.69 94.13C150.83 94.41 151.07 94.96 151.23 95.37C151.38 95.77 151.6 96.39 151.72 96.73C151.83 97.08 152.01 97.74 152.12 98.2C152.23 98.66 152.33 99.17 152.36 99.62L151.23 99.91C150.6 100.07 150.08 100.2 150.06 100.2C150.04 100.2 149.97 99.95 149.9 99.65C149.83 99.35 149.67 98.75 149.55 98.33C149.43 97.91 149.2 97.21 149.04 96.77C148.87 96.33 148.64 95.77 148.53 95.53C148.41 95.3 148.21 94.95 148.07 94.77C147.9 94.54 147.69 94.37 147.42 94.23C147.1 94.07 146.96 94.03 146.59 94.04C146.19 94.05 145.91 94.15 143.12 95.26C141.45 95.92 139.92 96.56 139.73 96.69C139.53 96.81 139.29 97.05 139.17 97.21C139.06 97.37 138.94 97.61 138.91 97.73C138.87 97.86 138.84 98.09 138.85 98.23C138.85 98.38 138.89 98.71 138.95 98.97C139 99.22 139.19 99.75 139.36 100.13C139.53 100.52 139.8 101.08 139.96 101.38C140.12 101.69 140.26 101.93 140.28 101.93C140.3 101.93 141.24 101.56 142.38 101.1C143.52 100.64 144.46 100.29 144.48 100.32C144.49 100.34 144.72 100.91 144.98 101.57C145.24 102.23 145.45 102.8 145.45 102.83C145.45 102.87 144.1 103.44 142.45 104.1C140.54 104.86 139.42 105.28 139.39 105.23C139.36 105.2 139.2 104.97 139.03 104.73C138.87 104.49 138.53 103.95 138.27 103.53C138.02 103.11 137.64 102.41 137.43 101.97C137.22 101.53 136.94 100.9 136.81 100.57C136.68 100.24 136.49 99.68 136.4 99.33C136.27 98.87 136.22 98.46 136.19 97.8C136.16 97.01 136.17 96.84 136.3 96.37C136.4 96.03 136.55 95.68 136.74 95.4C136.9 95.16 137.17 94.84 137.35 94.68C137.53 94.52 137.87 94.27 138.11 94.13C138.35 93.99 140.02 93.29 141.81 92.57C143.61 91.86 145.31 91.21 145.59 91.14C145.88 91.06 146.32 91.01 146.65 91ZM10.45 94.98L14.02 96.16C15.98 96.8 17.81 97.44 18.09 97.58C18.42 97.74 18.73 97.96 19 98.23C19.23 98.46 19.49 98.81 19.62 99.05C19.73 99.28 19.88 99.65 19.94 99.88C20.01 100.14 20.05 100.55 20.05 100.97C20.05 101.33 19.99 101.9 19.93 102.23C19.87 102.56 19.36 104.21 18.81 105.9C18.26 107.59 17.79 108.98 17.78 109C17.76 109.02 16.75 108.71 15.53 108.3C14.31 107.9 11.14 106.85 3.63 104.37L4.64 101.3C5.32 99.24 5.76 98.03 5.97 97.6C6.15 97.25 6.4 96.8 6.54 96.6C6.68 96.4 6.98 96.06 7.22 95.85C7.45 95.64 7.78 95.4 7.94 95.31C8.11 95.21 8.41 95.09 8.61 95.04C8.87 94.96 9.19 94.94 10.45 94.98ZM8.51 98.45C8.4 98.56 8.22 98.81 8.12 99.01C8.01 99.21 7.7 100.03 7.43 100.83C7.16 101.64 6.97 102.32 6.99 102.34C7.02 102.36 9.13 103.06 11.68 103.89C14.23 104.73 16.34 105.38 16.36 105.35C16.39 105.32 16.62 104.61 16.89 103.77C17.32 102.41 17.38 102.17 17.38 101.69C17.39 101.21 17.37 101.13 17.19 100.83C17.08 100.65 16.85 100.41 16.69 100.3C16.49 100.16 15.63 99.84 14.15 99.35C12.92 98.94 11.49 98.47 10.96 98.3C10.28 98.09 9.9 98 9.63 98C9.4 98 9.14 98.05 8.98 98.12C8.83 98.19 8.62 98.34 8.51 98.45Z" />
		<path class="shp2" d="M113.91 98.98C113.4 99.26 112.33 99.8 111.54 100.18C110.75 100.57 109.57 101.13 108.91 101.43C108.24 101.73 107 102.28 106.14 102.65C105.27 103.02 104.33 103.42 104.03 103.54C103.74 103.65 103.48 103.77 103.45 103.79C103.42 103.82 103.26 104.66 103.1 105.67C102.93 106.67 102.7 107.99 102.59 108.6C102.48 109.2 102.17 110.69 101.89 111.9C101.62 113.11 101.23 114.79 101.03 115.63C100.82 116.48 100.67 117.2 100.68 117.25C100.69 117.29 101.85 118.29 103.26 119.48C104.68 120.67 106.92 122.57 108.24 123.7C109.56 124.84 110.68 125.79 110.72 125.82C110.77 125.85 111.12 125.74 111.49 125.59C111.87 125.44 112.93 125 113.85 124.6C114.76 124.2 116.14 123.59 116.92 123.23C117.69 122.88 119.14 122.17 120.15 121.67C121.16 121.16 122.23 120.62 122.52 120.46L123.06 120.18C123.5 117.74 123.7 116.52 123.79 115.9C123.88 115.28 124.01 114.21 124.09 113.53C124.16 112.86 124.27 111.61 124.32 110.77C124.38 109.92 124.44 108.54 124.47 107.7L124.51 106.17C122.51 104.41 121.65 103.67 121.32 103.4C120.99 103.12 120.39 102.64 119.99 102.33C119.58 102.01 118.88 101.47 118.42 101.12C117.96 100.77 117.06 100.1 116.41 99.63C115.77 99.16 115.15 98.71 115.04 98.63L114.84 98.48L113.91 98.98Z" />
		<path class="shp3" d="M153.02 104.68C152.44 104.78 150.05 105.2 147.72 105.61C145.22 106.04 143.28 106.41 142.98 106.51C142.71 106.6 142.3 106.79 142.08 106.92C141.86 107.05 141.5 107.34 141.28 107.57C141.03 107.82 140.79 108.15 140.65 108.44C140.53 108.69 140.36 109.11 140.29 109.37C140.21 109.66 140.15 110.16 140.13 110.73C140.11 111.28 140.12 111.85 140.17 112.2C140.22 112.51 140.33 113.1 140.42 113.5C140.52 113.9 140.69 114.46 140.79 114.73C140.9 115.01 141.09 115.41 141.21 115.63C141.34 115.85 141.63 116.24 141.86 116.5C142.1 116.76 142.45 117.07 142.65 117.2C142.85 117.33 143.21 117.5 143.45 117.59C143.76 117.7 144.08 117.76 144.58 117.78C145.26 117.81 145.49 117.78 150.69 116.87C153.67 116.35 156.11 115.91 156.13 115.89C156.15 115.87 156.05 115.22 155.91 114.45C155.77 113.67 155.65 113.03 155.64 113.02C155.64 113.01 153.29 113.41 150.42 113.91C146.09 114.66 145.13 114.81 144.72 114.79C144.33 114.77 144.15 114.72 143.92 114.59C143.75 114.5 143.53 114.32 143.42 114.19C143.32 114.07 143.15 113.8 143.06 113.6C142.97 113.4 142.84 112.96 142.77 112.63C142.69 112.27 142.64 111.78 142.64 111.4C142.65 110.99 142.69 110.65 142.76 110.43C142.83 110.21 142.98 109.99 143.19 109.78C143.45 109.53 143.61 109.44 143.97 109.33C144.21 109.26 146.66 108.81 149.39 108.33C152.13 107.86 154.42 107.47 154.48 107.47C154.54 107.47 154.61 107.44 154.63 107.4C154.65 107.36 154.55 106.71 154.42 105.95C154.29 105.19 154.16 104.55 154.13 104.53C154.11 104.51 153.61 104.58 153.02 104.68ZM2.41 109.64C2.41 109.67 2.34 110.31 2.27 111.07C2.19 111.82 2.15 112.45 2.17 112.47C2.2 112.48 4.11 112.68 6.43 112.91C8.75 113.13 11.22 113.37 11.92 113.43C12.61 113.5 13.2 113.57 13.23 113.59C13.26 113.61 10.63 114.71 7.4 116.03C3.33 117.7 1.53 118.46 1.53 118.53C1.53 118.59 1.44 119.46 1.34 120.47C1.24 121.47 1.17 122.32 1.19 122.34C1.22 122.36 2.08 122.46 3.1 122.56C4.13 122.66 7.41 122.98 10.4 123.27C13.38 123.56 15.86 123.8 15.9 123.8C15.96 123.8 16.03 123.4 16.13 122.38C16.2 121.6 16.26 120.96 16.26 120.95C16.26 120.94 13.75 120.68 10.7 120.38C7.64 120.08 5.14 119.82 5.14 119.8C5.14 119.78 7.75 118.7 10.93 117.41C14.12 116.11 16.75 115.01 16.8 114.97C16.84 114.93 16.95 114.05 17.05 112.97C17.15 111.9 17.22 111.03 17.21 111.03C17.2 111.03 13.97 110.72 10.05 110.34C6.12 109.97 2.8 109.64 2.66 109.62C2.53 109.6 2.42 109.61 2.41 109.64Z" />
		<path class="shp2" d="M34.94 110.68C34.71 110.99 34.4 111.46 34.24 111.73C34.08 112.01 33.87 112.43 33.77 112.67C33.67 112.91 33.53 113.31 33.45 113.57C33.38 113.82 33.24 114.48 33.15 115.03C33.06 115.58 32.92 116.51 32.84 117.1C32.77 117.69 32.66 118.78 32.6 119.53C32.52 120.58 32.5 121.5 32.53 123.5C32.55 125.46 32.6 126.44 32.7 127.47C32.78 128.22 32.92 129.33 33.01 129.93C33.1 130.54 33.28 131.56 33.4 132.2C33.53 132.84 33.72 133.73 33.83 134.17C33.94 134.61 34.08 135.15 34.14 135.37L34.26 135.77C34.54 134.94 34.73 134.48 34.87 134.22C35 133.95 35.3 133.46 35.53 133.12C35.76 132.78 36.22 132.17 36.54 131.77L37.13 131.03C37.06 130.41 37.03 129.06 37 127.63C36.98 125.96 36.99 124.53 37.04 123.63C37.08 122.86 37.16 121.77 37.22 121.2C37.28 120.63 37.39 119.63 37.48 118.97L37.63 117.77C37.33 117.07 37.27 116.83 37.3 116.78C37.33 116.73 37.32 116.72 37.26 116.75C37.2 116.79 37.09 116.56 36.85 115.95C36.67 115.48 36.44 114.83 36.32 114.5C36.21 114.17 36.04 113.6 35.95 113.23C35.86 112.87 35.72 112.24 35.65 111.83C35.58 111.43 35.5 110.88 35.48 110.62C35.46 110.35 35.42 110.13 35.39 110.13C35.37 110.14 35.16 110.38 34.94 110.68Z" />
		<path class="shp4" d="M38.92 113.48L37.23 116.83L37.63 117.77C37.39 119.63 37.28 120.63 37.22 121.2C37.16 121.77 37.08 122.86 37.04 123.63C36.99 124.53 36.98 125.96 37 127.63C37.03 129.06 37.06 130.41 37.09 130.63L37.13 131.03C36.22 132.17 35.76 132.78 35.53 133.12C35.3 133.46 34.99 133.97 34.84 134.27C34.7 134.56 34.5 135.03 34.41 135.3C34.29 135.65 34.26 135.83 34.31 135.92C34.34 135.98 34.56 136.63 34.78 137.37C35.01 138.1 35.4 139.22 35.64 139.87C35.89 140.51 36.27 141.44 36.48 141.93C36.69 142.43 37.16 143.43 37.52 144.17C37.88 144.9 38.45 145.98 38.79 146.57C39.12 147.15 39.66 148.04 39.98 148.53C40.29 149.03 40.86 149.87 41.25 150.4C41.63 150.93 42.24 151.74 42.61 152.2C42.98 152.66 43.6 153.39 43.98 153.83C44.37 154.27 45.37 155.32 46.22 156.17C47.07 157.01 48.19 158.08 48.73 158.53C49.26 158.99 50.07 159.67 50.53 160.05C51.2 160.6 51.42 160.73 51.63 160.76C51.78 160.78 52.03 160.81 52.2 160.84L52.5 160.89C50.48 158.88 49.51 157.89 49.05 157.38L48.19 156.47C48.52 155.98 48.8 155.61 49.02 155.33C49.24 155.06 49.62 154.63 49.86 154.38C50.1 154.13 50.32 153.93 50.35 153.93C50.38 153.93 50.66 154.12 50.98 154.35C51.3 154.58 52.15 155.14 52.87 155.6C53.58 156.06 54.57 156.68 55.07 156.98C55.57 157.28 56.6 157.88 57.37 158.31C58.14 158.75 59.17 159.32 59.64 159.58C60.29 159.94 60.62 160.17 60.94 160.49C61.34 160.89 61.4 160.92 61.61 160.89C61.74 160.88 62.54 160.81 63.38 160.73C64.23 160.66 65.86 160.49 67.02 160.36C68.18 160.24 70.02 160.02 71.12 159.89C72.23 159.76 73.15 159.63 73.17 159.61C73.19 159.58 73.26 159.16 73.33 158.67C73.39 158.17 73.57 156.99 73.73 156.03C73.89 155.08 74.14 153.72 74.29 153C74.5 151.98 74.54 151.68 74.48 151.63C74.43 151.58 73.88 151.11 73.26 150.56C72.64 150.02 71.64 149.13 71.06 148.59C70.47 148.05 69.73 147.36 69.41 147.06L68.82 146.5C69.48 143.25 69.87 141.41 70.11 140.33C70.35 139.25 70.78 137.45 71.06 136.33C71.34 135.22 71.84 133.29 72.17 132.07C72.5 130.84 72.78 129.83 72.78 129.82C72.79 129.81 73.15 129.74 73.59 129.67C74.03 129.59 74.42 129.52 74.45 129.51C74.49 129.51 74.05 128.96 73.49 128.3C72.92 127.64 71.86 126.36 71.13 125.46C70.39 124.55 69.22 123.05 68.52 122.12L67.25 120.42C64.92 119.36 63.5 118.67 62.58 118.2C61.66 117.73 60.4 117.06 59.78 116.7C59.15 116.34 58.28 115.82 57.84 115.54C57.4 115.27 56.68 114.79 56.24 114.48C55.8 114.17 55.17 113.71 54.84 113.46C54.51 113.22 53.95 112.77 53.6 112.48C53.25 112.19 52.67 111.67 52.3 111.34L51.63 110.73C49.61 110.79 48.16 110.78 47.09 110.74C46.03 110.7 44.63 110.62 43.99 110.56C43.35 110.51 42.35 110.39 41.77 110.3C41.19 110.21 40.69 110.13 40.66 110.13C40.64 110.13 39.85 111.64 38.92 113.48Z" />
		<path class="shp0" d="M48.26 110.78C48.39 110.8 48.62 110.8 48.76 110.78C48.91 110.77 48.8 110.76 48.53 110.76C48.25 110.76 48.13 110.77 48.26 110.78Z" />
		<path class="shp4" d="M99.36 113.71C98.77 113.83 97.44 114.13 96.39 114.37C95.34 114.61 93.48 115.06 92.25 115.37C91.02 115.69 89.41 116.11 88.68 116.31C87.95 116.51 86.47 116.93 85.41 117.25C84.34 117.56 83.42 117.84 83.35 117.86C83.28 117.88 83.22 117.96 83.2 118.03C83.18 118.11 83.07 118.72 82.94 119.4C82.81 120.08 82.56 121.5 82.37 122.57C82.19 123.63 81.93 125.22 81.8 126.1C81.68 126.98 81.57 127.8 81.57 127.92C81.57 128.11 81.59 128.13 81.72 128.1C81.8 128.09 82.55 127.92 83.37 127.74C84.2 127.55 85.79 127.18 86.91 126.9C88.03 126.63 89.32 126.3 89.78 126.18L90.62 125.94C96.21 131.59 99.16 134.53 100.77 136.11L103.7 138.98C103.35 140.06 102.93 141.28 102.55 142.4C102.17 143.52 101.87 144.44 101.88 144.45C101.89 144.46 102.54 144.33 103.33 144.16C104.12 143.99 104.79 143.83 104.82 143.81C104.84 143.79 105.19 142.84 105.59 141.7C105.99 140.56 106.52 139.09 106.75 138.43C106.99 137.77 107.48 136.47 107.84 135.53C108.19 134.6 108.99 132.54 109.61 130.95L110.74 128.07C109.85 126.54 109.25 125.53 108.84 124.83L108.08 123.57C106.03 121.81 104.37 120.41 103.07 119.31C101.76 118.22 100.69 117.29 100.68 117.25C100.66 117.2 100.81 116.54 100.99 115.77C101.18 115 101.33 114.33 101.33 114.28C101.33 114.24 101.19 114.04 101.03 113.83C100.82 113.58 100.68 113.47 100.58 113.47C100.5 113.48 99.95 113.58 99.36 113.71Z" />
		<path class="shp3" d="M141.38 125.33L141.38 130.13L143.85 130.13L143.85 123.53L147.72 123.53L147.72 129.67C149.14 129.67 149.7 129.64 149.88 129.62L150.19 129.57L150.19 123.47L153.8 123.47C153.8 127.32 153.82 128.82 153.85 129.28L153.9 130.13C156.07 130.13 156.27 130.12 156.3 130.03C156.32 129.98 156.31 127.82 156.28 125.23L156.23 120.53L141.38 120.53L141.38 125.33Z" />
		<path class="shp0" d="M32.47 122.73C32.47 123.16 32.48 123.32 32.49 123.1C32.5 122.88 32.5 122.54 32.49 122.33C32.48 122.13 32.47 122.31 32.47 122.73ZM151.06 123.52C151.55 123.53 152.38 123.53 152.89 123.52C153.41 123.51 153 123.5 151.99 123.5C150.98 123.5 150.56 123.51 151.06 123.52ZM156.29 125.87C156.29 126.62 156.3 126.92 156.32 126.53C156.33 126.15 156.33 125.53 156.32 125.17C156.3 124.8 156.29 125.11 156.29 125.87Z" />
		<path class="shp2" d="M89.68 126.2C89.17 126.34 87.8 126.69 86.64 126.97C85.49 127.25 83.89 127.63 83.09 127.81C82.29 127.99 81.61 128.12 81.57 128.1C81.53 128.08 81.5 128.09 81.49 128.12C81.48 128.16 80.39 128.4 79.07 128.66C77.75 128.92 76.23 129.21 75.7 129.3C75.16 129.4 74.66 129.47 74.59 129.46C74.51 129.44 74.45 129.45 74.46 129.47C74.48 129.49 74.1 129.57 73.64 129.65C73.17 129.73 72.79 129.81 72.78 129.82C72.78 129.83 72.5 130.84 72.17 132.07C71.84 133.29 71.34 135.22 71.06 136.33C70.78 137.45 70.35 139.25 70.11 140.33C69.87 141.41 69.48 143.25 69.25 144.4L68.82 146.5C69.73 147.36 70.47 148.05 71.06 148.59C71.64 149.13 72.5 149.9 72.96 150.31C73.42 150.71 74.18 151.37 74.66 151.77C75.14 152.18 76.01 152.89 76.6 153.36C77.18 153.83 78.72 155.01 80.02 155.98C81.31 156.94 82.42 157.73 82.49 157.73C82.55 157.73 83.52 157.57 84.64 157.37C85.76 157.17 87.55 156.83 88.61 156.61C89.68 156.38 91.39 156.01 92.42 155.77C93.45 155.53 95.16 155.12 96.22 154.85L98.16 154.37C98.82 152.61 99.03 152.09 99.05 152.07C99.08 152.05 99.1 151.99 99.11 151.93C99.12 151.88 99.41 151.07 99.76 150.13C100.11 149.2 100.73 147.53 101.13 146.43C101.53 145.33 102.17 143.52 102.55 142.4C102.93 141.28 103.35 140.05 103.47 139.67L103.7 138.98C99.57 134.94 96.63 132.01 94.49 129.86L90.62 125.95L89.68 126.2Z" />
		<path class="shp0" d="M150.19 127.83L150.19 129.6C149.77 129.64 149.77 129.65 150.01 129.66L150.26 129.67C150.26 126.88 150.24 126.07 150.22 126.07C150.21 126.07 150.19 126.86 150.19 127.83ZM143.85 128.23L143.85 130.13L141.35 130.17L143.92 130.2C143.92 127.2 143.9 126.33 143.88 126.33C143.86 126.33 143.85 127.19 143.85 128.23Z" />
		<path class="shp3" d="M0.67 128.67C0.67 129.77 0.69 130.14 0.75 130.18C0.8 130.2 4.34 130.19 8.63 130.16L16.42 130.1L16.42 127.2L0.67 127.2L0.67 128.67Z" />
		<path class="shp2" d="M44.43 128.92C44.22 129.75 43.97 130.9 43.86 131.47C43.75 132.03 43.59 133.04 43.5 133.7C43.4 134.36 43.28 135.31 43.23 135.8C43.17 136.29 43.11 136.91 43.08 137.17L43.04 137.63C43.99 139.24 44.62 140.22 45.04 140.87C45.46 141.51 46.14 142.5 46.55 143.07C46.96 143.63 47.67 144.58 48.12 145.17C48.58 145.75 49.31 146.67 49.74 147.2L50.53 148.17C52.06 148.3 53 148.37 53.6 148.4C54.21 148.43 55.73 148.46 56.99 148.46L59.28 148.47C59.33 147.77 59.4 147.16 59.45 146.67C59.5 146.17 59.62 145.24 59.72 144.6C59.81 143.96 60.05 142.55 60.24 141.47C60.44 140.38 60.66 139.23 60.73 138.9L60.85 138.3C59.8 136.96 59.14 136.07 58.7 135.47C58.26 134.86 57.64 133.99 57.33 133.53C57.01 133.07 56.32 132.03 55.79 131.2C55.26 130.38 54.55 129.26 54.22 128.73L53.62 127.77C51.87 127.74 50.42 127.71 49.26 127.67C48.11 127.63 46.68 127.55 46.09 127.5C45.5 127.45 44.97 127.4 44.91 127.4C44.82 127.4 44.73 127.69 44.43 128.92Z" />
		<path class="shp0" d="M153.82 129.57C153.82 129.9 153.83 130.05 153.84 129.9C153.86 129.75 153.86 129.48 153.85 129.3C153.83 129.12 153.82 129.24 153.82 129.57ZM10.48 130.18C11.6 130.19 13.4 130.19 14.49 130.18C15.57 130.17 14.65 130.16 12.45 130.16C10.25 130.16 9.36 130.17 10.48 130.18Z" />
		<path class="shp2" d="M120.59 131.22C120.4 131.35 119.34 131.99 118.22 132.65C117.1 133.31 115.87 134.03 115.48 134.25C115.09 134.47 114.12 135.02 113.31 135.47C112.5 135.91 111.82 136.3 111.79 136.32C111.77 136.35 111.55 137.07 111.32 137.93C111.08 138.8 110.49 140.8 110.01 142.4C109.53 144 109.12 145.34 109.1 145.4C109.09 145.47 109.36 145.67 109.96 146.03C110.44 146.33 111.74 147.16 112.84 147.88L114.85 149.2C115.42 148.87 115.9 148.6 116.28 148.38C116.67 148.16 118.11 147.27 119.49 146.41C120.86 145.55 122.13 144.75 122.31 144.64C122.6 144.45 122.67 144.36 123.02 143.63C123.23 143.19 123.62 142.35 123.88 141.77C124.13 141.18 124.49 140.35 124.66 139.93C124.83 139.51 125.11 138.79 125.27 138.33C125.44 137.88 125.72 137.03 125.9 136.47C126.09 135.9 126.23 135.42 126.21 135.4C126.2 135.38 125.86 135.04 125.44 134.65C125.03 134.25 123.88 133.29 122.89 132.5C121.9 131.71 121.05 131.05 121 131.03C120.96 131.01 120.77 131.1 120.59 131.22Z" />
		<path class="shp0" d="M10.43 141.43L9.65 143.8C5.79 143.8 4.93 143.82 4.91 143.87C4.89 143.9 5.75 144.6 6.81 145.42C7.88 146.23 8.75 146.93 8.75 146.97C8.75 147 8.38 148.11 7.94 149.43C7.5 150.75 7.14 151.84 7.14 151.85C7.14 151.86 7.17 151.87 7.21 151.87C7.25 151.87 7.6 151.62 7.99 151.31C8.39 151.01 9.29 150.33 10 149.81L11.28 148.87C14.31 151.11 15.22 151.79 15.27 151.83C15.32 151.87 15.37 151.88 15.39 151.87C15.41 151.85 15.05 150.73 14.6 149.39C13.8 146.99 13.79 146.94 13.92 146.84C13.99 146.79 14.86 146.12 15.85 145.36C16.84 144.59 17.65 143.93 17.67 143.88C17.68 143.82 17.18 143.8 15.3 143.8L12.92 143.8C11.7 140.13 11.32 139.07 11.29 139.07C11.25 139.07 10.87 140.13 10.43 141.43ZM144.87 141.85L144.07 144.23L139.23 144.3C142.26 146.63 143.14 147.31 143.16 147.33C143.17 147.35 142.82 148.46 142.37 149.8C141.93 151.14 141.59 152.25 141.61 152.27C141.63 152.28 141.68 152.27 141.73 152.23C141.78 152.19 142.69 151.51 143.77 150.71L145.72 149.27C148.9 151.64 149.83 152.33 149.84 152.32C149.85 152.31 149.49 151.19 149.03 149.83L148.2 147.37L152.18 144.3L147.35 144.27C146.15 140.55 145.77 139.47 145.73 139.47C145.69 139.47 145.3 140.54 144.87 141.85Z" />
		<path class="shp4" d="M98.59 153.22L98.16 154.37C95.16 155.12 93.45 155.53 92.42 155.77C91.39 156.01 89.68 156.38 88.61 156.61C87.55 156.83 85.76 157.17 84.64 157.37C83.52 157.57 82.55 157.73 82.49 157.73C82.42 157.73 82.25 157.64 82.1 157.53C81.96 157.42 81.83 157.34 81.81 157.35C81.8 157.36 81.7 157.92 81.61 158.6C81.51 159.28 81.42 160.02 81.42 160.25L81.4 160.67C83.01 161.55 83.82 161.99 84.24 162.21L85.01 162.61L87.51 162.13C89.5 163.33 90.52 163.93 91.07 164.24L92.05 164.8C93.94 164.43 95.12 164.18 95.89 164C96.66 163.82 97.76 163.55 98.33 163.4C98.89 163.25 99.38 163.11 99.41 163.08C99.43 163.06 99.85 162.34 100.33 161.5C100.82 160.66 101.73 159.01 102.37 157.85C103.01 156.69 103.52 155.72 103.52 155.71C103.51 155.7 103.02 155.29 102.43 154.79C101.84 154.3 100.86 153.49 100.24 152.98C99.63 152.48 99.1 152.07 99.07 152.07C99.04 152.07 98.83 152.58 98.59 153.22Z" />
		<path class="shp2" d="M112.54 153.68C111.94 154.01 110.72 154.65 109.84 155.1L108.24 155.93C106.42 157.77 105.41 158.76 104.82 159.33L103.75 160.37C104.3 161.35 104.5 161.73 104.53 161.85C104.59 162.04 104.62 162.06 104.78 162.03C104.88 162.01 105.4 161.82 105.93 161.62C106.47 161.42 107.38 161.04 107.97 160.78C108.56 160.53 109.28 160.2 109.57 160.05C110.05 159.81 110.25 159.65 111.5 158.41C112.26 157.65 113.31 156.59 113.83 156.04L114.78 155.06C114.38 154.26 114.14 153.82 113.99 153.55C113.84 153.28 113.7 153.07 113.68 153.07C113.66 153.08 113.15 153.35 112.54 153.68ZM49.86 154.38C49.62 154.63 49.24 155.06 49.02 155.33C48.8 155.61 48.52 155.98 48.41 156.15L48.19 156.47C49.51 157.88 50.32 158.71 50.83 159.23C51.35 159.75 52.14 160.52 52.6 160.94C53.06 161.36 53.8 161.99 54.24 162.34C54.68 162.69 55.44 163.28 55.94 163.64C56.66 164.16 57.01 164.37 57.67 164.65C58.13 164.85 59.3 165.32 60.28 165.69C61.25 166.07 62.57 166.57 63.21 166.79C63.86 167.01 64.8 167.33 65.32 167.49C65.83 167.65 66.57 167.88 66.97 167.99C67.36 168.11 67.7 168.2 67.72 168.2C67.74 168.2 67.85 168.06 67.97 167.88C68.09 167.71 68.37 167.35 68.6 167.08C68.83 166.82 69.02 166.59 69.02 166.57C69.02 166.55 68.5 166.21 67.87 165.82C67.24 165.43 66.3 164.83 65.78 164.48C65.27 164.13 64.61 163.67 64.32 163.44C64.02 163.22 63.44 162.76 63.01 162.41C62.59 162.06 61.84 161.38 61.34 160.9C60.48 160.05 60.4 160 59.38 159.43C58.79 159.11 57.78 158.55 57.14 158.18C56.5 157.82 55.57 157.27 55.07 156.98C54.57 156.68 53.58 156.06 52.87 155.6C52.15 155.14 51.3 154.58 50.98 154.35C50.66 154.12 50.37 153.93 50.34 153.93C50.31 153.93 50.09 154.14 49.86 154.38Z" />
		<path class="shp0" d="M111.47 158.45L111.04 158.9C111.74 158.23 111.94 158.03 111.94 158.02C111.94 158.01 111.93 158 111.92 158C111.91 158 111.71 158.2 111.47 158.45Z" />
		<path fill-rule="evenodd" class="shp3" d="M22.78 159.69C22.81 159.69 23.48 160.55 24.27 161.6C25.32 162.99 25.79 163.67 26.02 164.13C26.33 164.76 26.33 164.77 26.33 165.43C26.33 166 26.31 166.14 26.18 166.4C26.09 166.56 25.91 166.81 25.78 166.95C25.64 167.09 25.23 167.44 24.87 167.73C24.5 168.01 24.05 168.33 23.86 168.44C23.68 168.55 23.41 168.69 23.26 168.73C23.12 168.78 22.8 168.82 22.56 168.83C22.23 168.83 22.04 168.78 21.36 168.47L21.16 169.12C21.06 169.47 20.8 170.34 20.59 171.03C20.38 171.73 20.19 172.33 20.17 172.37C20.14 172.42 19.77 171.98 18.51 170.3L19.59 166.62L19.21 166.13C19 165.86 18.79 165.63 18.76 165.62C18.72 165.61 18.16 166 17.51 166.48C16.52 167.23 16.33 167.35 16.26 167.26C16.22 167.21 15.91 166.8 15.57 166.35C15.23 165.9 14.97 165.51 14.99 165.48C15.01 165.46 16.76 164.14 18.88 162.55C21 160.97 22.75 159.68 22.78 159.69ZM20.4 164.42C20.4 164.46 20.67 164.86 21 165.3C21.33 165.74 21.7 166.18 21.82 166.28C21.93 166.38 22.1 166.48 22.18 166.51C22.26 166.53 22.43 166.5 22.56 166.45C22.69 166.4 23.02 166.19 23.3 165.99C23.57 165.79 23.87 165.54 23.95 165.43C24.05 165.31 24.1 165.15 24.1 165C24.09 164.87 24.04 164.67 23.98 164.56C23.92 164.45 23.59 163.99 23.26 163.54C22.93 163.1 22.63 162.73 22.6 162.74C22.56 162.74 22.05 163.1 21.46 163.54C20.87 163.98 20.39 164.38 20.4 164.42ZM135.27 161.85C135.46 161.86 135.76 161.95 135.94 162.05C136.12 162.14 136.51 162.38 136.8 162.59C137.1 162.8 137.54 163.16 137.79 163.4C138.09 163.68 138.32 163.97 138.43 164.2C138.57 164.48 138.61 164.67 138.61 165C138.61 165.24 138.59 165.52 138.51 165.8L140.51 165.8C141.61 165.8 142.51 165.81 142.51 165.83C142.51 165.85 142.15 166.33 140.91 167.93L140.2 167.93C139.8 167.93 138.96 167.96 137.16 168.03L136.82 168.47C136.64 168.7 136.46 168.94 136.43 168.98C136.39 169.04 136.71 169.32 137.51 169.93C138.13 170.41 138.64 170.81 138.64 170.83C138.64 170.85 138.33 171.27 137.24 172.67L134.12 170.26C132.4 168.93 130.74 167.65 129.84 166.97L131.22 165.17C131.98 164.18 132.84 163.13 133.13 162.83C133.43 162.54 133.82 162.22 134 162.12C134.19 162.02 134.47 161.91 134.64 161.87C134.8 161.84 135.09 161.83 135.27 161.85ZM133.45 165.37C133.08 165.85 132.77 166.25 132.77 166.27C132.78 166.28 133.26 166.67 133.86 167.12L134.94 167.93C135.74 166.87 136.07 166.43 136.18 166.27C136.29 166.1 136.39 165.86 136.41 165.73C136.44 165.6 136.42 165.42 136.36 165.31C136.31 165.2 136.06 164.95 135.81 164.74C135.55 164.54 135.26 164.33 135.17 164.29C135.08 164.24 134.9 164.2 134.77 164.2C134.63 164.2 134.45 164.26 134.33 164.36C134.21 164.44 133.82 164.9 133.45 165.37Z" />
		<path class="shp2" d="M86.44 162.34C85.95 162.44 85.41 162.54 85.24 162.55C85.08 162.57 84.91 162.6 84.87 162.62C84.84 162.64 83.71 162.84 82.37 163.07C81.03 163.29 79.83 163.49 79.7 163.51L79.47 163.55C79.55 165.88 79.59 166.15 79.78 166.94C79.9 167.44 80.02 167.87 80.04 167.88C80.05 167.9 80.76 168.14 81.6 168.42C82.45 168.7 83.59 169.04 84.14 169.19C84.69 169.33 85.55 169.55 86.04 169.67L86.94 169.88C88.19 169.61 89.07 169.39 89.71 169.23C90.36 169.06 91.18 168.83 91.55 168.73C91.92 168.62 92.24 168.51 92.26 168.48C92.28 168.45 92.35 168.25 92.41 168.03C92.47 167.81 92.7 167.16 92.93 166.58L93.35 165.54C91.02 164.22 89.71 163.46 88.93 162.99C88.15 162.52 87.47 162.14 87.43 162.14C87.38 162.14 86.94 162.23 86.44 162.34Z" />
		<path class="shp0" d="M139.08 167.98C139.3 168 139.63 168 139.81 167.98C140 167.97 139.81 167.96 139.41 167.96C139.01 167.96 138.86 167.97 139.08 167.98Z" />
		<path fill-rule="evenodd" class="shp3" d="M29.92 169.28L30.23 169.56C30.4 169.71 31.46 170.71 32.59 171.8C33.72 172.88 34.65 173.77 34.65 173.77C34.65 173.77 34.35 174.07 33.32 175.1L30.34 172.23L29.14 173.47L30.14 174.42C30.69 174.94 31.32 175.54 31.94 176.12L31.31 176.76C30.96 177.11 30.64 177.4 30.61 177.4C30.57 177.4 29.93 176.81 27.84 174.8L26.47 176.28L27.23 177.02C27.66 177.43 28.33 178.09 29.47 179.18L28.84 179.83C28.49 180.18 28.18 180.46 28.15 180.45C28.13 180.44 27.07 179.44 23.5 176.03L23.91 175.59C24.14 175.34 25.59 173.82 27.13 172.21L29.92 169.28ZM125.22 171.75C125.28 171.77 126.68 172.54 128.33 173.47C129.98 174.39 131.87 175.45 132.52 175.81C133.17 176.17 133.7 176.49 133.7 176.52C133.71 176.54 133.32 176.92 131.97 178.13L131.2 177.67C130.78 177.41 130.41 177.19 130.37 177.18C130.34 177.17 129.79 177.63 129.16 178.2C128.52 178.77 127.95 179.28 127.88 179.33C127.76 179.43 127.77 179.47 128.57 181.17L128.21 181.5C128.02 181.68 127.61 182.05 126.76 182.8L126.52 182.22C126.39 181.9 125.52 179.88 124.59 177.73C123.65 175.59 122.89 173.8 122.9 173.77C122.9 173.73 123.4 173.26 124.01 172.71C124.67 172.12 125.16 171.74 125.22 171.75ZM126.16 176.02L127 177.78C128.5 176.41 128.68 176.22 128.61 176.16C128.57 176.12 127.87 175.69 127.06 175.2C126.25 174.71 125.53 174.26 125.45 174.21C125.37 174.15 125.31 174.14 125.32 174.18C125.32 174.22 125.7 175.04 126.16 176.02ZM37.98 176.44C38.04 176.46 38.46 176.75 38.93 177.07C39.4 177.4 39.78 177.68 39.78 177.7C39.78 177.72 38.89 179.02 37.81 180.58C36.72 182.15 35.76 183.52 35.53 183.83L38.9 186.17L38.51 186.73C38.29 187.05 38.05 187.39 37.81 187.68L35.22 185.89C33.8 184.91 32.63 184.07 32.63 184.03C32.62 184 33.8 182.27 35.25 180.19C37.17 177.43 37.91 176.41 37.98 176.44ZM118.91 177L119.94 178.57L119.56 178.81C119.35 178.94 118.83 179.27 117.62 180.07L117.97 180.62C118.17 180.92 119.03 182.25 119.9 183.57C120.76 184.89 121.51 186.05 121.69 186.33L120.74 186.96C120.03 187.43 119.77 187.57 119.71 187.51C119.67 187.47 118.75 186.06 117.66 184.38C116.3 182.29 115.65 181.35 115.6 181.38C115.55 181.41 115.04 181.74 114.46 182.11C113.88 182.49 113.39 182.8 113.36 182.8C113.33 182.8 113.12 182.5 112.88 182.12C112.64 181.75 112.42 181.4 112.39 181.36C112.36 181.29 112.94 180.88 114.53 179.85C115.73 179.08 117.21 178.12 117.81 177.72L118.91 177ZM46.59 181.94C46.61 181.94 47.07 182.17 47.61 182.45C48.35 182.84 48.59 182.99 48.56 183.07C48.54 183.12 47.59 184.97 46.45 187.17C45.31 189.37 44.35 191.19 44.33 191.21C44.31 191.24 43.83 191.02 42.25 190.2L42.9 188.95C43.26 188.26 44.23 186.4 45.05 184.81C45.88 183.23 46.57 181.93 46.59 181.94ZM109.27 183.07C109.34 183.07 109.43 183.29 109.59 183.85C109.71 184.28 109.81 184.66 109.81 184.7C109.81 184.74 109.65 184.81 109.46 184.86C109.26 184.91 108.79 185.06 108.4 185.18C108.02 185.3 107.43 185.53 107.1 185.69C106.74 185.86 106.44 186.05 106.35 186.17C106.27 186.28 106.2 186.44 106.2 186.53C106.2 186.63 106.29 186.89 106.4 187.12C106.54 187.41 106.66 187.56 106.79 187.61C106.93 187.67 107.2 187.64 108.17 187.47C108.83 187.35 109.63 187.24 109.94 187.22C110.34 187.19 110.61 187.21 110.87 187.29C111.14 187.36 111.31 187.46 111.49 187.66C111.63 187.81 111.86 188.17 112 188.45C112.14 188.73 112.33 189.16 112.41 189.4C112.53 189.71 112.57 189.98 112.57 190.33C112.57 190.69 112.53 190.9 112.45 191.07C112.38 191.2 112.25 191.4 112.15 191.53C112.05 191.65 111.8 191.89 111.58 192.05C111.36 192.22 110.81 192.53 110.37 192.74C109.93 192.95 109.3 193.22 108.97 193.33C108.64 193.44 108.16 193.57 107.9 193.62C107.65 193.68 107.26 193.74 106.64 193.81L106.48 192.99C106.4 192.54 106.34 192.16 106.35 192.16C106.36 192.15 106.7 192.08 107.1 192C107.51 191.92 108.09 191.76 108.4 191.65C108.72 191.54 109.18 191.36 109.44 191.24C109.7 191.11 109.99 190.92 110.1 190.79C110.26 190.6 110.28 190.53 110.25 190.32C110.23 190.18 110.13 189.92 110.04 189.73C109.95 189.55 109.79 189.35 109.69 189.29C109.59 189.22 109.39 189.18 109.24 189.19C109.09 189.19 108.54 189.28 108 189.39C107.47 189.5 106.81 189.61 106.54 189.64C106.16 189.67 105.94 189.66 105.67 189.58C105.41 189.51 105.21 189.39 105 189.19C104.81 189 104.6 188.69 104.42 188.33C104.27 188.02 104.08 187.58 104.01 187.35C103.92 187.1 103.87 186.76 103.87 186.5C103.87 186.2 103.91 185.98 104 185.8C104.07 185.65 104.23 185.43 104.35 185.29C104.47 185.16 104.76 184.92 105 184.77C105.24 184.61 105.66 184.37 105.93 184.23C106.21 184.1 106.72 183.87 107.07 183.74C107.42 183.6 108 183.41 108.37 183.31C108.74 183.21 109.07 183.11 109.11 183.1C109.14 183.09 109.22 183.07 109.27 183.07ZM54.92 185.73C54.95 185.73 55.53 185.93 56.2 186.17C56.88 186.41 57.52 186.64 57.82 186.77L57.78 190C57.76 191.78 57.72 193.98 57.65 196.57L56.81 196.28C56.35 196.13 55.84 195.95 55.4 195.8L55.49 193.9L55.2 193.79C55.04 193.73 54.3 193.47 52.23 192.75L51.67 193.51C51.35 193.93 51.07 194.26 51.03 194.25C50.99 194.24 50.49 194.07 49.91 193.87C49.19 193.62 48.87 193.47 48.89 193.42C48.91 193.37 50.11 191.83 51.54 189.98C52.98 188.14 54.32 186.43 54.52 186.18C54.71 185.94 54.9 185.73 54.92 185.73ZM53.42 191.28C53.47 191.31 53.94 191.49 54.49 191.68C55.03 191.87 55.48 192.02 55.5 192C55.52 191.98 55.57 191.08 55.63 190C55.68 188.92 55.72 188.03 55.71 188.02C55.7 188.02 55.16 188.74 54.52 189.62C53.73 190.7 53.37 191.25 53.42 191.28ZM93.52 188.54C93.68 188.53 93.69 188.55 93.84 189.42C93.93 189.9 93.99 190.31 93.97 190.32C93.96 190.33 93.06 190.49 91.97 190.68C90.88 190.88 89.98 191.05 89.96 191.07C89.94 191.09 89.99 191.47 90.21 192.74L90.45 192.7C90.58 192.67 91.42 192.53 93.98 192.1L94.05 192.43C94.09 192.62 94.16 193.02 94.22 193.33C94.27 193.65 94.31 193.9 94.3 193.91C94.29 193.91 93.48 194.06 92.48 194.23C91.49 194.4 90.65 194.55 90.62 194.56C90.57 194.58 90.61 194.96 90.71 195.58C90.79 196.12 90.87 196.57 90.87 196.58C90.88 196.58 91.8 196.43 92.92 196.23C94.04 196.04 94.96 195.88 94.97 195.89C94.98 195.89 95.06 196.3 95.15 196.78C95.28 197.46 95.3 197.67 95.24 197.7C95.19 197.71 94.3 197.88 93.25 198.06C92.21 198.24 90.81 198.49 90.15 198.6C89.49 198.71 88.94 198.8 88.93 198.78C88.92 198.77 88.61 197.04 88.25 194.93C87.88 192.82 87.52 190.77 87.45 190.37C87.37 189.96 87.32 189.63 87.33 189.62C87.34 189.62 88.31 189.45 89.48 189.24C90.66 189.04 92.01 188.8 92.48 188.71C92.96 188.62 93.43 188.54 93.52 188.54ZM64.34 188.62C64.44 188.64 65.06 188.74 66.95 189.03L67.68 191.2C68.09 192.39 68.61 193.91 68.84 194.58C69.07 195.25 69.27 195.77 69.29 195.75C69.32 195.72 69.55 194.34 69.82 192.67C70.08 191 70.3 189.62 70.31 189.61C70.32 189.6 70.8 189.66 71.39 189.74C71.98 189.82 72.47 189.89 72.47 189.89C72.48 189.9 72.38 190.56 72.25 191.37C72.12 192.17 71.79 194.24 71.52 195.97C71.24 197.69 71.01 199.11 71.01 199.11C71 199.12 70.37 199.03 69.61 198.91C68.86 198.8 68.22 198.69 68.2 198.67C68.18 198.65 67.65 197.19 67.01 195.42C66.37 193.65 65.83 192.22 65.81 192.25C65.79 192.28 65.56 193.61 65.31 195.22C64.88 197.94 64.84 198.13 64.72 198.13C64.64 198.13 64.22 198.07 63.78 198C63.34 197.93 62.91 197.85 62.83 197.83C62.7 197.8 62.68 197.77 62.71 197.55C62.73 197.41 63.05 195.41 63.41 193.1C63.78 190.79 64.1 188.83 64.12 188.74C64.16 188.62 64.2 188.59 64.34 188.62Z" />
		<path class="shp0" d="M57.76 189.8C57.76 190.11 57.78 190.23 57.79 190.07C57.8 189.9 57.8 189.65 57.79 189.5C57.78 189.35 57.76 189.49 57.76 189.8Z" />
		<path class="shp3" d="M79.47 189.98C79.36 190 79.09 190.05 78.87 190.11C78.65 190.17 78.29 190.3 78.08 190.41C77.87 190.51 77.56 190.74 77.4 190.9C77.23 191.06 77.02 191.37 76.91 191.58L76.73 191.97C76.7 195.83 76.72 196.93 76.76 197.18C76.8 197.41 76.9 197.76 77 197.95C77.09 198.15 77.31 198.44 77.51 198.63C77.71 198.82 78.06 199.05 78.3 199.15C78.54 199.26 78.95 199.39 79.22 199.44C79.48 199.49 80.07 199.53 80.52 199.53C80.97 199.53 81.67 199.49 82.07 199.44C82.48 199.38 82.96 199.31 83.16 199.27C83.47 199.21 83.5 199.18 83.48 199.05C83.46 198.97 83.38 198.56 83.29 198.15C83.18 197.59 83.11 197.4 83.04 197.4C82.98 197.4 82.58 197.45 82.14 197.5C81.7 197.56 81.01 197.61 80.6 197.61C79.99 197.61 79.82 197.59 79.6 197.48C79.45 197.41 79.28 197.25 79.2 197.12C79.08 196.92 79.07 196.71 79.01 194.97C78.97 193.63 78.98 192.93 79.03 192.7C79.07 192.49 79.17 192.3 79.28 192.19C79.38 192.09 79.56 191.97 79.67 191.93C79.79 191.89 80.25 191.86 80.8 191.86C81.32 191.86 82.04 191.9 82.4 191.94C82.77 191.98 83.08 192 83.08 191.99C83.08 191.98 83.15 191.56 83.22 191.07C83.3 190.57 83.36 190.16 83.35 190.16C83.34 190.15 82.95 190.1 82.47 190.04C81.97 189.98 81.2 189.94 80.64 189.94C80.1 189.95 79.58 189.97 79.47 189.98Z" />
		<path class="shp0" d="M76.65 193.03C76.65 193.36 76.67 193.51 76.68 193.37C76.69 193.22 76.69 192.95 76.68 192.77C76.67 192.58 76.65 192.7 76.65 193.03ZM57.7 195.47C57.7 195.78 57.71 195.9 57.72 195.73C57.74 195.57 57.74 195.31 57.72 195.17C57.71 195.02 57.7 195.15 57.7 195.47Z" />
	</g>
</svg>